<svg xmlns="http://www.w3.org/2000/svg" viewBox="0 0 500 500"><defs><style>.cls-1{fill:#5e8cb5;}.cls-2{fill:#2550a8;}.cls-3{fill:#255bcd;}.cls-4{fill:#81b6e0;}.cls-5{fill:#f0f0ff;}.cls-6{fill:#3366e0;}.cls-7{fill:#4690ef;}.cls-8{fill:#2b52a5;}.cls-9{fill:#3166d7;}</style></defs><title>Artboard 1</title><g id="Layer_1" data-name="Layer 1"><polygon class="cls-1" points="250 329.1 250 239.31 324.98 201.2 324.98 288.3 250 329.1"/><polygon class="cls-2" points="250 329.1 250 414 399.95 329.1 398.9 163.42 324.98 201.2 324.98 288.3 250 329.1"/><polygon class="cls-3" points="250 500 250 414 399.95 329.1 398.9 163.42 473.82 122.62 473.82 377.61 250 500"/><polygon class="cls-4" points="175.02 201.2 250 159.3 324.98 201.2 250 239.31 175.02 201.2"/><polygon class="cls-5" points="175.02 286.65 250 329.1 250 239.31 175.02 201.2 175.02 286.65"/><polygon class="cls-6" points="250 414 101.15 329.1 101.15 163.42 175.02 201.2 175.02 286.65 250 329.1 250 414"/><polygon class="cls-7" points="26.18 374.31 250 500 250 414 101.15 329.1 101.15 163.42 26.18 122.62 26.18 374.31"/><polygon class="cls-8" points="250 81.72 101.15 163.42 175.02 201.2 250 159.3 324.98 201.2 398.9 163.42 250 81.72"/><polygon class="cls-9" points="26.18 122.62 250.55 0 473.82 122.62 398.9 163.42 250 81.72 101.15 163.42 26.18 122.62"/></g></svg>