<svg xmlns="http://www.w3.org/2000/svg" viewBox="0 0 500 500"><defs><style>.cls-1{fill:#5e8cb5;}.cls-2{fill:#255bcd;}.cls-3{fill:#81b6e0;}.cls-4{fill:#f0f0ff;}.cls-5{fill:#4690ef;}.cls-6{fill:#3166d7;}</style></defs><title>Artboard 1</title><g id="Layer_1" data-name="Layer 1"><polygon class="cls-1" points="251 329.1 251 239.31 325.98 201.2 325.98 288.3 251 329.1"/><polygon class="cls-2" points="251 500 251 414 400.95 329.1 399.9 163.42 474.82 122.62 474.82 377.61 251 500"/><polygon class="cls-3" points="176.02 201.2 251 159.3 325.98 201.2 251 239.31 176.02 201.2"/><polygon class="cls-4" points="176.02 286.65 251 329.1 251 239.31 176.02 201.2 176.02 286.65"/><polygon class="cls-5" points="27.18 374.31 251 500 251 414 102.15 329.1 102.15 163.42 27.18 122.62 27.18 374.31"/><polygon class="cls-6" points="27.18 122.62 251.55 0 474.82 122.62 399.9 163.42 251 81.72 102.15 163.42 27.18 122.62"/><polygon class="cls-2" points="102.15 329.1 176.02 286.65 176.02 201.2 251 159.3 251 81.72 102.15 163.42 102.15 329.1"/><polygon class="cls-6" points="400.95 329.1 325.98 288.3 251 329.1 176.02 286.65 102.15 329.1 251 414 400.95 329.1"/><polygon class="cls-5" points="399.9 163.42 251 81.72 251 159.3 325.98 201.2 325.98 288.3 400.95 329.1 399.9 163.42"/></g></svg>