<svg xmlns="http://www.w3.org/2000/svg" viewBox="0 0 500 500"><defs><style>.cls-1{fill:#37605d;}.cls-2{fill:#8fcbc1;}.cls-3{fill:#f0f0ff;}.cls-4{fill:#45a997;}.cls-5{fill:#1d1d1b;opacity:0.25;}.cls-6{fill:#388678;}</style></defs><title>Artboard 1</title><g id="Layer_1" data-name="Layer 1"><polygon class="cls-1" points="276.81 430.21 276.81 249.06 428.06 172.19 428.06 347.91 276.81 430.21"/><polygon class="cls-2" points="125.55 172.19 276.81 87.66 428.06 172.19 276.81 249.06 125.55 172.19"/><polygon class="cls-3" points="125.55 344.57 276.81 430.21 276.81 249.06 125.55 172.19 125.55 344.57"/><polygon class="cls-4" points="125.55 172.19 216.38 121.43 161.06 70.99 0.05 294.03 266.61 340.13 125.55 234.11 125.55 172.19"/><polygon class="cls-4" points="336.8 352.37 500 380.59 427.98 314.92 428.1 347.77 336.8 352.37"/><polygon class="cls-5" points="337.42 352.37 379.21 374.49 399.99 363.19 337.42 352.37"/><path class="cls-6" d="M.05,294l.41,97.76c0,5.06,4.91,10,10.86,11s10.79-2.31,10.76-7.37l-.29-61c0-5.07,4.83-8.39,10.77-7.38s10.83,6,10.86,11l.31.05a7.22,7.22,0,0,0-.3,2.11l.1,21.28c0,5.06,4.91,10,10.85,11s10.79-2.31,10.77-7.37L65.05,344a8.26,8.26,0,0,0-.32-2.21l.31.05c0-5.07,4.82-8.38,10.77-7.37s10.83,6,10.85,11l.29,61c0,5.07,4.91,10,10.85,11s10.8-2.31,10.77-7.38l-.29-61,.29-36.36Z"/><polygon class="cls-5" points="125.99 344.82 153.87 360.61 266.61 340.13 125.55 315.73 125.99 344.82"/></g></svg>